<svg width="227" height="60" viewBox="0 0 227 60" fill="none" xmlns="http://www.w3.org/2000/svg">
<path d="M3.6842 3.66202C5.57002 4.2156 7.45584 4.79048 9.34166 5.34406C10.6354 5.72731 11.9292 6.08927 13.201 6.5364C13.6396 6.68544 14.1001 6.94094 14.429 7.26032C19.6479 12.3064 24.8448 17.3526 30.0637 22.42C30.6558 22.9949 30.6558 22.9949 31.2479 22.42C32.6732 21.036 34.1204 19.6308 35.5458 18.2468C39.4709 14.4782 43.3741 10.6883 47.2992 6.94094C47.5843 6.66415 48.0448 6.49381 48.4395 6.36606C51.2682 5.49311 54.1189 4.64144 56.9695 3.78977C57.2108 3.72589 57.452 3.68331 57.8248 3.59814C57.5616 4.44981 57.3204 5.19502 57.0792 5.94023C56.3336 8.28232 55.5881 10.6031 54.7987 12.9452C54.6671 13.3284 54.4259 13.7117 54.1189 14.0098C48.8561 19.1411 43.5934 24.2511 38.3087 29.3824C37.7386 29.936 37.7386 29.936 38.3087 30.4895C40.8085 32.9168 43.3303 35.3653 45.8301 37.7926C46.3563 38.3036 46.5098 38.2823 46.7949 37.6436C47.7378 35.5996 48.3737 33.4917 48.3737 31.2348C48.3737 30.7451 48.5492 30.5321 49.0754 30.5321C49.9745 30.5534 50.8735 30.5321 51.7507 30.5321C52.0577 30.5321 52.3208 30.596 52.2769 30.958C52.1454 32.1929 52.0796 33.4278 51.8384 34.6414C51.2244 37.5371 50.0403 40.2199 48.1764 42.5832C47.8255 43.0304 47.8694 43.3071 48.2641 43.6904C52.0577 47.3313 55.8293 51.0147 59.6009 54.6769C60.193 55.2518 60.1711 55.2944 59.5571 55.8267C58.7896 56.5293 58.044 57.2532 57.3204 58.0197C56.7941 58.5733 56.7503 58.5946 56.2021 58.0836C52.4304 54.4214 48.6588 50.7592 44.8872 47.0971C44.2951 46.5222 44.2951 46.5222 43.5934 47.0119C40.7427 48.9707 37.5851 50.1844 34.0985 50.6315C33.4187 50.7167 32.717 50.7167 32.0153 50.7592C31.5548 50.8018 31.3356 50.6315 31.3575 50.1631C31.3794 49.3327 31.3794 48.5023 31.3575 47.6719C31.3575 47.2248 31.5329 47.0545 32.0153 47.0332C34.3178 47.0119 36.4887 46.4583 38.5718 45.5215C38.7692 45.4363 38.9446 45.3086 39.1858 45.1808C39.0104 44.9679 38.8788 44.7976 38.7253 44.6485C36.1817 42.1787 33.638 39.7089 31.0944 37.2177C30.7216 36.8558 30.5242 36.8983 30.1734 37.239C27.6516 39.7089 25.108 42.1574 22.5862 44.6272C22.06 45.1382 22.0819 45.1808 22.7397 45.5002C24.8668 46.5009 27.1473 46.9693 29.4936 47.1397C29.9541 47.1609 30.1514 47.3526 30.1295 47.7997C30.1076 48.6088 30.1076 49.4392 30.1295 50.2482C30.1514 50.7592 29.8883 50.9083 29.4278 50.887C25.108 50.6741 21.1609 49.4392 17.6524 46.9267C16.9946 46.4583 16.9946 46.4583 16.4464 46.9906C12.6967 50.6315 8.94695 54.2724 5.19724 57.9132C4.58325 58.5094 4.60518 58.4881 3.96926 57.9132C3.85962 57.8068 3.72806 57.7003 3.59649 57.5939C3.26756 57.2745 1.46946 55.8267 1.09668 55.2518C1.11861 55.2305 3.66227 52.7607 3.6842 52.7394C6.88571 49.6521 10.0653 46.5435 13.2668 43.4562C13.5519 43.2007 13.5299 42.9665 13.2887 42.6684C11.8415 40.9012 10.8547 38.8785 10.153 36.7493C9.56094 34.9821 9.25394 33.1723 9.18816 31.3199C9.16623 30.8089 9.36358 30.6386 9.88986 30.6386C10.7012 30.6599 11.5345 30.6599 12.3458 30.6386C12.8282 30.6173 13.0256 30.7663 13.0475 31.2561C13.1352 33.4491 13.6615 35.5357 14.6044 37.5158C14.9114 38.1546 14.9772 38.1758 15.5035 37.6648C17.9813 35.2802 20.4373 32.8742 22.9152 30.4683C23.5072 29.8934 23.5072 29.8934 22.9371 29.3185C17.6743 24.2085 12.4116 19.1198 7.17077 14.0098C6.95149 13.7969 6.71028 13.5201 6.62257 13.2433C5.98665 11.3696 5.41652 9.49594 4.80253 7.62227C4.40783 6.42994 4.01312 5.21631 3.64034 4.02398C3.6842 3.87494 3.6842 3.76848 3.6842 3.66202ZM7.36812 8.62298C7.32427 8.64428 7.28041 8.68686 7.23656 8.70815C7.65319 9.96436 8.0479 11.2419 8.48646 12.4981C8.57417 12.7536 8.81538 12.9665 9.01273 13.1581C12.1704 16.1815 15.328 19.205 18.4638 22.2284C25.722 29.2546 32.9583 36.3022 40.2165 43.3284C41.1374 44.2227 41.1594 44.2227 42.1242 43.3497C42.6724 42.8387 42.6724 42.8387 42.1461 42.3277C30.6997 31.2348 19.2532 20.1205 7.80669 9.00623C7.67512 8.85719 7.52162 8.75073 7.36812 8.62298ZM8.85924 7.17515C8.81538 7.23902 8.7496 7.3029 8.70574 7.36677C8.90309 7.49452 9.12237 7.60098 9.27587 7.77132C20.5908 18.7365 31.8838 29.7018 43.1768 40.6883C44.2732 41.7529 44.01 41.6251 44.9968 40.5392C45.3257 40.1773 45.3257 39.8792 44.931 39.5172C34.3616 29.2546 23.7923 18.992 13.2229 8.72944C13.0694 8.5804 12.894 8.41007 12.6967 8.34619C11.4248 7.94165 10.153 7.5584 8.85924 7.17515ZM52.6278 7.23902C52.5839 7.19644 52.562 7.15386 52.5181 7.08998C51.3998 7.43065 50.2595 7.77132 49.1412 8.13328C48.8123 8.23973 48.4834 8.43136 48.2202 8.66557C43.1329 13.5627 38.0675 18.4597 32.9802 23.3568C31.9934 24.315 31.9934 24.315 33.0021 25.2944C33.5065 25.7841 33.5503 25.7841 34.0547 25.2944C40.1068 19.4179 46.159 13.5414 52.2331 7.64357C52.3866 7.51582 52.5181 7.36677 52.6278 7.23902ZM54.1628 8.70815C54.1189 8.66557 54.075 8.64428 54.0531 8.60169C53.8777 8.75073 53.7242 8.89978 53.5488 9.04882C49.7771 12.711 46.0055 16.3945 42.2338 20.0353C39.9533 22.2284 37.6728 24.4214 35.3703 26.6145C34.9976 26.9551 34.9318 27.2106 35.3484 27.5513C35.5677 27.7216 35.765 27.9133 35.9405 28.1049C36.2913 28.5094 36.5545 28.4455 36.9272 28.1049C42.1461 23.0375 47.365 17.97 52.5839 12.9026C52.7593 12.7323 52.9348 12.5194 53.0225 12.3064C53.3953 11.0928 53.768 9.90049 54.1628 8.70815ZM29.2524 35.4505C29.1208 35.2802 29.0112 35.1098 28.8796 34.9821C27.8271 33.9814 28.0025 33.7685 26.7964 34.9608C24.4501 37.239 22.1038 39.5172 19.7575 41.7954C18.6392 42.8813 18.6611 42.86 19.9549 43.7756C20.3276 44.0311 20.5689 43.9885 20.8539 43.6904C23.5511 41.0715 26.2482 38.4526 28.9454 35.8338C29.0331 35.7273 29.1208 35.5996 29.2524 35.4505ZM26.3579 32.6613C26.2702 32.5336 26.2044 32.4271 26.1167 32.3419C25.8974 32.129 25.6781 31.9161 25.4588 31.7032C24.9545 31.2135 24.9326 31.2135 24.4063 31.7245C21.9284 34.1304 19.4725 36.5151 16.9946 38.9211C15.964 39.9218 15.964 40.1134 17.0165 41.1141C17.3016 41.3909 17.5208 41.3696 17.8059 41.1141C20.5469 38.4526 23.2879 35.7912 26.029 33.1297C26.1605 32.9807 26.2482 32.8103 26.3579 32.6613Z" fill="#FF3864"/>
<path d="M115.21 16.0541C113.237 21.2493 110.825 26.1676 106.615 30.1705C106.812 30.2556 106.943 30.3408 107.053 30.3621C108.259 30.6389 109.465 30.8944 110.671 31.1712C111.439 31.3628 112.206 31.4906 112.754 30.7454C112.864 30.5963 112.886 30.4047 113.018 30.2769C113.171 30.1492 113.412 30.0002 113.588 30.0214C113.719 30.0427 113.851 30.2982 113.96 30.4686C113.982 30.5112 113.96 30.575 113.982 30.6176C114.048 33.0023 114.136 35.4082 114.202 37.7929C114.202 37.9207 114.202 38.0484 114.202 38.1549C114.18 38.453 114.267 38.8149 113.829 38.8575C113.412 38.9214 113.281 38.6233 113.105 38.3252C112.601 37.4522 112.162 36.558 111.526 35.7915C110.123 34.0669 108.369 32.7894 106.132 32.2358C104.86 31.9164 103.654 32.0442 102.382 32.4061C101.242 32.7255 100.365 33.3004 99.6634 34.152C98.3915 35.6637 97.6898 37.431 97.3609 39.3259C96.6153 43.3926 96.9662 47.3742 98.4354 51.2706C99.1809 53.272 100.299 55.0392 102.054 56.3806C103.545 57.509 105.803 58.0839 107.667 57.1684C108.04 56.9767 108.215 56.7638 108.215 56.338C108.193 53.6978 108.215 51.0576 108.193 48.4175C108.193 47.4593 107.623 46.778 106.856 46.3522C106.198 45.9902 105.452 45.8199 104.707 45.5857C104.378 45.4792 104.027 45.4579 104.049 45.0321C104.049 44.5637 104.4 44.4998 104.773 44.5211C106.615 44.585 108.457 44.6914 110.298 44.6914C112.162 44.6914 114.026 44.6063 115.89 44.5637C116.373 44.5424 116.877 44.4998 117.359 44.5424C117.535 44.5637 117.82 44.7979 117.82 44.9256C117.82 45.1173 117.666 45.3728 117.491 45.4792C117.25 45.6283 116.921 45.6283 116.658 45.7347C115.627 46.2244 115.101 47.0548 115.123 48.1833C115.145 50.2486 115.167 52.3351 115.232 54.4004C115.254 55.2095 114.903 55.7844 114.289 56.2741C112.097 57.9562 109.553 58.8291 106.878 59.4253C104.707 59.8937 102.426 59.8511 100.277 59.553C96.4399 59.0633 93.4138 57.0832 91.3964 53.783C90.0808 51.6325 89.4448 49.2904 89.2256 46.8206C88.9405 43.6907 89.3133 40.6673 90.7605 37.8142C91.9008 35.5573 93.5673 33.7688 95.7382 32.4061C95.9794 32.2571 96.2206 32.108 96.5276 31.8951C96.3741 31.7887 96.2645 31.6822 96.1549 31.6183C93.2384 30.2131 90.9798 28.0839 89.094 25.5289C88.173 24.2727 87.2959 22.9952 86.5065 21.6538C85.739 20.3763 85.9802 19.5033 87.1862 18.5878C87.866 18.0768 88.5896 17.6297 89.2475 17.0974C90.0369 16.4586 90.8482 15.8412 91.5061 15.096C93.2823 13.0732 92.9972 9.8795 90.936 8.13358C89.993 7.34578 88.9186 7.19674 87.7564 7.68645C85.9802 8.47424 84.7303 9.81562 83.6997 11.3699C83.4804 11.6893 83.305 12.0512 83.1076 12.3919C82.5594 13.2436 82.4717 14.1591 82.4936 15.1385C82.5156 19.333 82.5156 23.5488 82.4936 27.7432C82.4936 28.6162 82.691 29.3827 83.5462 29.8085C83.9847 30.0214 84.511 30.1279 84.9934 30.2557C85.3004 30.3195 85.5855 30.4047 85.5416 30.7879C85.4978 31.1712 85.2127 31.2777 84.8838 31.2564C83.3269 31.2138 81.7919 31.1499 80.235 31.1499C77.7352 31.1499 75.2354 31.2138 72.7356 31.2351C72.4944 31.2351 72.1216 31.1073 72.0339 30.937C71.8804 30.6602 72.012 30.3621 72.4286 30.2769C72.9768 30.1492 73.5469 30.0427 74.0513 29.8511C74.9942 29.4891 75.4985 28.8291 75.4985 27.8071C75.4985 21.3344 75.4985 14.8618 75.4985 8.38908C75.4985 6.70703 74.2048 5.19532 72.5163 4.81207C72.3409 4.76949 72.1216 4.76949 71.99 4.66303C71.8365 4.51399 71.6831 4.27978 71.705 4.10944C71.705 3.9604 71.9681 3.83265 72.1216 3.72619C72.1874 3.68361 72.297 3.7049 72.3848 3.7049C74.5337 3.74748 76.6827 3.76878 78.8536 3.81136C79.7088 3.83265 80.4982 4.06686 81.1779 4.59915C82.0112 5.28049 82.3621 6.15345 82.384 7.17545C82.4059 7.98453 82.384 8.79362 82.384 9.6027C82.4278 9.62399 82.4717 9.64529 82.5155 9.64529C82.6033 9.53883 82.7129 9.43237 82.8006 9.32591C83.8532 8.0697 84.8399 6.72832 86.0021 5.55728C87.3397 4.19461 88.9186 3.13003 90.8702 2.72548C93.2603 2.23577 95.5628 2.44869 97.5802 3.93911C99.5537 5.40824 100.146 8.43166 98.9836 10.8802C98.1503 12.6687 96.8566 14.0314 95.2119 15.1385C94.576 15.5644 93.9401 15.9902 93.3261 16.4373C92.4051 17.0974 92.2297 17.9278 92.756 18.9072C93.8743 21.0576 95.2558 22.9952 96.9881 24.6985C98.1284 25.8057 99.3564 26.8277 100.957 27.2961C102.953 27.871 104.773 27.509 106.417 26.2528C108.369 24.7411 109.794 22.8036 110.869 20.6531C111.987 18.4601 112.952 16.2031 113.96 13.9462C114.07 13.712 114.004 13.35 113.895 13.1158C112.754 11.0718 111.592 9.04912 110.408 7.02641C109.531 5.53599 108.128 4.79078 106.461 4.40753C106.264 4.36494 106.044 4.32236 105.935 4.19461C105.825 4.06686 105.759 3.83265 105.803 3.68361C105.825 3.55586 106.044 3.4494 106.198 3.36423C106.33 3.32165 106.483 3.34294 106.636 3.34294C109.027 3.34294 111.417 3.36423 113.807 3.34294C115.43 3.34294 116.702 4.00299 117.535 5.30178C118.368 6.57928 119.07 7.92066 119.793 9.26204C122.096 13.4991 124.376 17.7361 126.657 21.9732C127.666 23.8256 128.652 25.6779 129.639 27.5303C130.429 29.0207 131.678 29.8937 133.345 30.2344C133.696 30.2982 134.025 30.3621 133.981 30.7879C133.937 31.1925 133.586 31.2138 133.279 31.2138C133.038 31.2138 132.797 31.2351 132.577 31.2138C132.227 31.1925 132.007 31.2777 131.854 31.6396C131.766 31.8312 131.503 31.9803 131.306 32.0654C130.933 32.2145 130.538 32.2571 130.143 32.3848C129.179 32.7042 128.674 33.3429 128.674 34.3437C128.674 38.2613 128.587 42.179 128.696 46.0967C128.762 48.4813 129.201 50.8234 130.692 52.8461C132.161 54.8476 134.178 55.6566 136.678 55.4224C140.077 55.0818 141.941 53.0591 142.928 50.0356C143.41 48.5239 143.542 46.9696 143.563 45.4153C143.607 42.2003 143.52 38.9852 143.607 35.7915C143.651 33.9817 142.445 32.8532 140.998 32.3422C140.779 32.2571 140.537 32.2145 140.318 32.1506C139.858 32.0442 139.353 32.0016 139.419 31.3202C139.419 31.2564 139.068 31.1073 138.893 31.1073C137.731 31.1286 136.568 31.1712 135.384 31.1925C135.231 31.1925 135.012 31.2351 134.902 31.1712C134.705 31.0647 134.485 30.8944 134.441 30.7028C134.419 30.575 134.661 30.3195 134.836 30.2344C135.121 30.1066 135.428 30.0853 135.735 30.0214C136.941 29.7659 137.687 28.8717 137.687 27.6794C137.687 20.8234 137.687 13.9888 137.687 7.13287C137.687 5.85536 137.204 5.21661 135.932 4.85465C135.582 4.74819 135.187 4.7482 134.88 4.62044C134.683 4.53528 134.463 4.27978 134.441 4.06686C134.419 3.91782 134.705 3.66232 134.88 3.59844C135.165 3.53457 135.494 3.59844 135.801 3.59844C136.832 3.64103 137.884 3.68361 138.915 3.7049C140.515 3.72619 142.116 3.72619 143.717 3.7049C144.857 3.68361 146.019 3.59844 147.16 3.55586C147.225 3.55586 147.313 3.53457 147.379 3.55586C147.73 3.61974 148.234 3.55586 148.256 4.08815C148.278 4.59915 147.818 4.59915 147.445 4.70561C146.875 4.87595 146.283 5.04628 145.756 5.30178C145.252 5.55728 145.011 6.04699 145.011 6.62186C145.011 13.7972 145.011 20.9938 145.011 28.1691C145.011 29.042 145.647 29.7234 146.699 30.0001C147.006 30.0853 147.357 30.1279 147.664 30.2344C147.839 30.2982 148.081 30.426 148.146 30.5963C148.278 30.9583 148.519 30.9796 148.848 30.9157C149.221 30.8518 149.638 30.8518 149.703 31.3202C149.769 31.7887 149.462 31.959 149.024 32.0442C147.094 32.4061 145.997 33.7049 145.997 35.5999C145.997 39.1982 146.041 42.7965 145.976 46.3948C145.932 49.1414 145.427 51.8241 144.068 54.294C142.686 56.7638 140.647 58.4672 137.818 59.1698C137.029 59.3614 136.196 59.4253 135.384 59.4679C134.354 59.5104 133.345 59.5104 132.314 59.4679C128.28 59.2975 125.275 57.4452 123.346 54.0172C121.964 51.5899 121.482 48.9072 121.438 46.1605C121.372 42.1364 121.35 38.1123 121.328 34.0882C121.328 33.3429 120.999 32.8107 120.32 32.5126C119.771 32.2784 119.179 32.1719 118.609 31.9803C118.434 31.9377 118.236 31.8738 118.149 31.7674C117.842 31.4054 118.302 30.2557 118.763 30.1492C119.289 30.0214 119.837 29.9576 120.364 29.7872C120.692 29.6808 120.999 29.5104 121.263 29.2975C121.92 28.8078 122.03 28.382 121.657 27.6794C120.342 25.1244 118.982 22.5906 117.644 20.0569C116.987 18.8007 116.351 17.5445 115.693 16.3096C115.627 16.1818 115.539 16.0328 115.474 15.905C115.32 16.0754 115.254 16.0541 115.21 16.0541Z" fill="#FF3864"/>
<path d="M162.707 7.40976C162.773 7.282 162.817 7.15425 162.905 7.0265C164.593 4.85475 166.83 3.49208 169.527 2.95979C174.066 2.06554 177.947 3.61983 180.557 7.62267C182.07 9.94347 182.64 12.5411 182.75 15.2664C182.859 18.1621 182.289 20.9087 181.039 23.5276C180.14 25.4225 178.846 27.0194 177.18 28.3608C175.732 29.5105 174.198 30.49 172.356 30.9584C172.356 31.001 172.377 31.0648 172.377 31.1074C172.772 31.15 173.189 31.2139 173.584 31.2139C176.346 31.1926 179.088 31.1287 181.85 31.1074C182.245 31.1074 182.793 30.9584 182.837 31.5758C182.859 32.1294 182.355 32.1081 181.938 32.1933C180.25 32.534 179.57 33.1514 179.592 34.727C179.614 41.7107 179.592 48.7156 179.592 55.6993C179.592 56.5084 179.614 56.5723 180.447 56.5297C182.421 56.4445 184.416 56.551 186.324 56.1677C189.372 55.5716 191.258 53.5702 192.069 50.6532C192.135 50.4403 192.135 50.2061 192.266 50.057C192.376 49.8867 192.661 49.6738 192.793 49.7164C192.99 49.7802 193.165 50.0144 193.253 50.2061C193.341 50.3977 193.297 50.6319 193.275 50.8448C193.209 52.1649 193.209 53.5063 193.034 54.8264C192.749 57.1046 191.696 58.2969 189.087 58.5524C185.951 58.8505 182.815 58.8079 179.68 58.7227C176.566 58.6163 173.474 58.6802 170.36 58.6802C170.119 58.6802 169.878 58.6802 169.658 58.6802C169.308 58.6589 168.979 58.595 168.957 58.1692C168.957 57.7646 169.22 57.5943 169.615 57.5304C170.141 57.424 170.689 57.2962 171.193 57.1046C172.005 56.7852 172.377 56.1677 172.356 55.2948C172.334 51.952 172.334 48.5879 172.356 45.2451C172.377 42.754 172.443 40.2841 172.443 37.793C172.443 36.5794 172.377 35.387 172.334 34.1734C172.312 33.5134 172.005 32.9811 171.391 32.7043C170.864 32.4701 170.294 32.3636 169.746 32.172C169.527 32.0868 169.329 31.9378 169.132 31.81C168.913 31.6823 168.715 31.4694 168.496 31.4481C167.707 31.4055 166.917 31.4268 166.15 31.4481C165.974 31.4481 165.689 31.512 165.624 31.6397C165.382 32.0868 164.966 32.1294 164.527 32.2146C164.045 32.321 163.54 32.4914 163.102 32.7469C162.51 33.0875 162.247 33.6198 162.247 34.3012C162.247 41.3274 162.247 48.3537 162.247 55.3799C162.247 56.551 163.168 57.4878 164.44 57.6156C164.593 57.6369 164.768 57.573 164.878 57.6582C165.075 57.8285 165.251 58.0414 165.426 58.233C165.229 58.3821 165.053 58.6589 164.856 58.6589C164.001 58.7014 163.146 58.6589 162.291 58.6589C159.835 58.6589 157.357 58.6589 154.901 58.6589C154.024 58.6589 153.146 58.6802 152.269 58.6802C151.94 58.6802 151.677 58.5737 151.655 58.2117C151.655 57.8498 151.897 57.7007 152.247 57.6156C152.73 57.5091 153.212 57.4452 153.673 57.2749C154.506 56.9342 154.945 56.3168 154.945 55.4012C154.945 48.3537 154.945 41.3061 154.945 34.2799C154.945 33.3643 154.418 32.832 153.629 32.4914C153.19 32.321 152.73 32.2359 152.247 32.172C151.853 32.1081 151.655 31.9591 151.633 31.5758C151.568 30.6177 151.655 30.49 152.598 30.277C152.818 30.2345 153.037 30.1919 153.234 30.128C154.506 29.6596 155.274 29.2337 155.274 27.5304C155.208 21.2068 155.208 14.8618 155.274 8.53821C155.295 6.94134 154.067 5.21671 152.247 4.89734C151.897 4.83346 151.48 4.79088 151.546 4.27988C151.612 3.74758 152.028 3.79017 152.401 3.76888C154.506 3.76888 156.611 3.76888 158.694 3.76888C159.001 3.76888 159.308 3.81146 159.615 3.85404C161.106 4.06696 162.247 4.87604 162.378 6.771C162.4 6.94134 162.488 7.13296 162.532 7.3033C162.576 7.34588 162.641 7.38846 162.707 7.40976ZM162.444 19.5247C162.444 19.8441 162.444 20.1635 162.444 20.4829C162.444 22.8675 162.444 25.2309 162.444 27.6156C162.444 28.5524 162.773 28.9569 163.694 29.1486C165.448 29.5318 167.202 29.468 168.957 29.0847C171.128 28.595 172.838 27.4452 173.956 25.5716C174.987 23.8682 175.447 21.9946 175.579 20.0357C175.754 17.3956 175.36 14.8406 174.285 12.392C173.474 10.5396 172.421 8.85759 170.601 7.75042C169.044 6.7923 167.4 6.60067 165.755 7.36717C163.694 8.30401 162.422 9.81572 162.444 12.1791C162.466 14.6276 162.444 17.0762 162.444 19.5247Z" fill="#FF3864"/>
<path d="M204.831 34.8339C205.423 34.2164 205.905 33.6841 206.432 33.1731C208.186 31.4698 210.335 30.4691 212.769 30.1923C217.286 29.7026 220.751 31.4272 223.075 35.2171C224.325 37.2611 224.873 39.518 225.049 41.9027C225.246 44.2874 224.961 46.6082 224.215 48.8651C223.426 51.271 222.11 53.3576 220.225 55.1248C217.659 57.5095 214.655 58.7657 211.102 58.787C209.743 58.8083 208.361 58.8935 207.002 58.8722C204.677 58.8083 202.331 58.638 200.007 58.5954C198.209 58.5528 196.389 58.6593 194.591 58.6806C194.393 58.6806 194.108 58.4889 194.042 58.3186C193.933 57.9992 194.174 57.7863 194.503 57.7437C194.678 57.7224 194.876 57.7011 195.029 57.6373C195.533 57.4669 196.06 57.2966 196.542 57.0624C197.31 56.7004 197.617 56.0404 197.595 55.2313C197.573 53.8686 197.595 52.506 197.595 51.1433C197.595 46.161 197.595 41.1788 197.595 36.1965C197.595 34.0035 196.498 32.6621 194.284 32.215C193.933 32.1511 193.757 31.9808 193.779 31.6401C193.801 31.2569 194.086 31.1504 194.437 31.1504C196.191 31.1504 197.946 31.1504 199.7 31.1504C200.401 31.1504 201.081 31.1717 201.783 31.2569C203.625 31.4911 204.524 32.4066 204.721 34.1951C204.787 34.3654 204.809 34.5358 204.831 34.8339ZM204.765 44.7132C204.809 44.7132 204.831 44.7132 204.875 44.7132C204.875 48.1625 204.875 51.633 204.875 55.0823C204.875 55.9552 205.291 56.4236 206.19 56.5727C207.704 56.8282 209.195 56.8708 210.708 56.5727C212.747 56.1894 214.545 55.3803 215.795 53.7196C217.593 51.3136 218.054 48.5457 217.988 45.65C217.966 44.628 217.812 43.606 217.571 42.6053C217.001 40.0716 215.992 37.7508 214.019 35.8984C212.155 34.1525 209.765 33.7693 207.528 35.0255C205.796 36.0049 204.765 37.474 204.765 39.4967C204.765 41.2214 204.765 42.9673 204.765 44.7132Z" fill="#FF3864"/>
</svg>
